# xmcd CD database file
#
# Track frame offsets:
#	150
#	57530
#	86300
#	149182
#	167815
#	207127
#	248272
#	263332
#	301480
#
# Disc length: 4317 seconds
#
# Revision: 1
# Processed by: cddbd v1.5.2PL0 Copyright (c) Steve Scherf et al.
# Submitted via: CDex 1.51
#
DISCID=7510db09
DTITLE=Nature Escapes - Tropical Sanctuary
DYEAR=2007
DGENRE=New Age
TTITLE0=Finding Paradise
TTITLE1=Secret Sanctuary
TTITLE2=Waves of Renewal
TTITLE3=Tropical Sanctuary
TTITLE4=Promise of Peace
TTITLE5=Ocean of Dreams
TTITLE6=Haven
TTITLE7=Sacred Space
TTITLE8=Beyond the Horizon
EXTD=YEAR: 2007
EXTT0=
EXTT1=
EXTT2=
EXTT3=
EXTT4=
EXTT5=
EXTT6=
EXTT7=
EXTT8=
PLAYORDER=
